<svg xmlns="http://www.w3.org/2000/svg" viewBox="0 0 154.68 87.92">
  <title>logo</title>
  <g>
    <g>
      <path d="M7.6,14.25H0V1H30.42V14.25H22.81V68.33H7.6Z" fill="#D39742"/>
      <path d="M46.38,46.3v5.46c0,4,.67,5.05,2.12,5.05s1.83-1.42,1.83-3.94c0-5.06-.58-6.57-6.46-12.33-7.79-7.69-11.45-11.63-11.45-21.43C32.42,8.29,36.27,0,48.69,0,62.36,0,64.77,8.8,64.77,17.89V22H51.29V16.88c0-3.43-.58-4.35-2-4.35-1.16,0-1.83,1-1.83,4,0,3.54.58,5,5.39,9.5,8.76,8.19,12.9,12.43,12.9,23.15,0,12.33-3.56,20.11-17.14,20.11-12.13,0-16.75-7-16.75-19v-4Z" fill="#D39742"/>
      <path d="M102.93,30.41a1.67,1.67,0,0,1,.5-.21V1H87.73V53c0,2.53-.48,3.74-2.21,3.74-1.44,0-2-1.32-2-3.74V1H68V50.64c0,13.24,5.11,18.5,17.33,18.5,5.59,0,10-.89,13-3.36L95.57,40.37h.53L96,39.8a2,2,0,0,1,.34-.7,1.94,1.94,0,0,1,3,0,2,2,0,0,1,.32.61c.07.21.14.43.2.64H100a1.43,1.43,0,0,0,.14-.34,2.55,2.55,0,0,0-.08-.92,1.92,1.92,0,0,0-1.44-1.39l-.27-.06a.27.27,0,0,1-.23-.3,1.79,1.79,0,0,1,.79-1.43,1.67,1.67,0,0,1,2.49.72,4.28,4.28,0,0,1,.25.92c.24,0,.48-.08.72-.09a2.09,2.09,0,0,1,1.06.22V35.18a.9.9,0,0,1-.77-1.06.7.7,0,0,1,.57-.59l.2,0V33h-.15c-.57.08-.77-.07-1-.61A1.57,1.57,0,0,1,102.93,30.41Zm-1.85.37a2.39,2.39,0,0,1-2.18.42c-.14,0-.2-.1-.17-.27a1.73,1.73,0,0,0-2.35-1.86c-.06,0-.12.09-.2.14.17.2.38.18.58.22a1.39,1.39,0,0,1,1.18,1.06,1.4,1.4,0,0,1-1.47,1.75,1.78,1.78,0,0,1-1.58-2.33c0-.13.08-.27.13-.42l-.41-.14a1.92,1.92,0,0,1,.37-3.7,2.2,2.2,0,0,1,1.24.21c.14.07.21,0,.28-.09s.09-.18.14-.27a1.41,1.41,0,0,1,1.54-.74,1.39,1.39,0,0,1,1.11,1.17c0,.17,0,.41.11.51s.34,0,.51.09a2.38,2.38,0,0,1,1.92,1.6A2.3,2.3,0,0,1,101.08,30.78Z" fill="#D39742"/>
      <path d="M110.35,39.54c-.1,0-.17.1-.3.18a2,2,0,0,1,.93.64h.69A1.09,1.09,0,0,0,110.35,39.54Zm0,0c-.1,0-.17.1-.3.18a2,2,0,0,1,.93.64h.69A1.09,1.09,0,0,0,110.35,39.54Zm0,0c-.1,0-.17.1-.3.18a2,2,0,0,1,.93.64h.69A1.09,1.09,0,0,0,110.35,39.54Zm0,0c-.1,0-.17.1-.3.18a2,2,0,0,1,.93.64h.69A1.09,1.09,0,0,0,110.35,39.54Zm-1.67.82,0,0h0c.07.06.17.29.22.27H109s.07,0,.1,0h0a.14.14,0,0,0,0-.09v-.2ZM133,1c-1.35,13.74-1.73,20.11-2.6,29.62h-.58c-.48-8.09-1.92-23.35-2.6-29.62h-20.8V21.68h.14a2.32,2.32,0,0,1,1.85,1.17c.22.35.2.37.61.29a1.6,1.6,0,0,1,1.71,1,1.49,1.49,0,0,1-1,2,3.87,3.87,0,0,1-.61.12c0,.2.08.39.11.58A1,1,0,0,1,108.21,28a.76.76,0,0,1-.69-.56.82.82,0,0,1,.18-.9l.36-.36a.67.67,0,0,0-.75.12,1.13,1.13,0,0,0-.39,1.14c.12.58,0,.82-.48,1.07v2.31a1.66,1.66,0,0,1,1,.19,2,2,0,0,1,1.16,2.21,2.15,2.15,0,0,1-1.24,1.59c-.34.18-.36.16-.32.54a1.51,1.51,0,0,1-.55,1.21v3.84h1.62a1.6,1.6,0,0,1-1.21-1.12,1.53,1.53,0,0,1,1.08-1.89l.2,0c.42,0,.38-.05.49-.45a2.35,2.35,0,0,1,1.51-1.77,2.41,2.41,0,0,1,2.54.48,1.94,1.94,0,0,1,.74,1.36,1.42,1.42,0,0,1-1.93,1.44,3,3,0,0,1-.56-.3l-.29-.17-.06,0a2.24,2.24,0,0,0,.11.31,1.71,1.71,0,0,0,2.49.53l.34-.25c.13-.07.22,0,.29.1a1.67,1.67,0,0,1-.27,1.66l-.08.07h.6l-3,28h9.39V51.45c0-11.62-.39-25.07-.49-33.05h.77c1.16,12.94,3.18,40.43,3.66,49.93h11.17c.19-4.54,2.4-33,3.56-49.63h.77c-.09,9-.19,24.26-.19,33.26V68.33h15V1ZM115.49,34a1.74,1.74,0,0,1-.34.12,1,1,0,0,1-1.15-.37,3.65,3.65,0,0,0-2.37-1.48,2.84,2.84,0,0,0-.77,0c-.43,0-.55-.06-.54-.5a1.47,1.47,0,0,1,.72-1.23l.32-.17a1.84,1.84,0,0,0-.27-.23,1.58,1.58,0,0,1-.06-2.41,1.58,1.58,0,0,1,1.73-.18c.22.1.23.21.08.42a1.49,1.49,0,0,0,.36,2.17s.09.08.14.08a2.18,2.18,0,0,0,.44,0,1.94,1.94,0,0,0-.15-.36,1.14,1.14,0,0,1,0-1.63.8.8,0,0,1,1-.27,1.38,1.38,0,0,1,.87,1.69.75.75,0,0,0,0,.31c.22.18.46.34.67.53A2.09,2.09,0,0,1,115.49,34Zm-7.25,6.33h-.15a1.11,1.11,0,0,0,.36,0,1,1,0,0,0,.23,0Zm.44,0,0,0h0c.07.06.17.29.22.27h.2a.14.14,0,0,0,0-.09v-.2Zm1.67-.82c-.1,0-.17.1-.3.18a2,2,0,0,1,.93.64h.69A1.09,1.09,0,0,0,110.35,39.54Zm-1.67.82,0,0h0c.07.06.17.29.22.27h.2a.14.14,0,0,0,0-.09v-.2Zm1.67-.82c-.1,0-.17.1-.3.18a2,2,0,0,1,.93.64h.69A1.09,1.09,0,0,0,110.35,39.54Z" fill="#D39742"/>
      <path d="M108.68,40.37a1.56,1.56,0,0,1-.61,0Z" fill="#D39742" fill-rule="evenodd"/>
      <path d="M108.07,40.37h.61A1.56,1.56,0,0,1,108.07,40.37Z" fill="#D39742"/>
      <path d="M109.18,40.54h0v.1c-.09,0-.14,0-.21,0s-.18-.28-.25-.28h.45S109.17,40.51,109.18,40.54Z" fill="#D39742"/>
      <polygon points="101.18 68.33 99.74 40.37 103.42 40.37 103.42 68.33 101.18 68.33" fill="#D39742"/>
      <polygon points="108.69 68.33 110.13 40.37 106.44 40.37 106.44 68.33 108.69 68.33" fill="#D39742"/>
    </g>
    <g>
      <path d="M9.21,86.66a5.77,5.77,0,0,1,0-6.9,4,4,0,0,1,3.09-1.26,4.08,4.08,0,0,1,2.68.9,3.48,3.48,0,0,1,1.25,2.38H14.63a2.19,2.19,0,0,0-.8-1.38,2.37,2.37,0,0,0-1.52-.52,2.23,2.23,0,0,0-1.87.9,3.84,3.84,0,0,0-.7,2.43,3.9,3.9,0,0,0,.69,2.43,2.24,2.24,0,0,0,1.88.89,2.5,2.5,0,0,0,1.53-.46,2.23,2.23,0,0,0,.8-1.28h1.6A3.51,3.51,0,0,1,15,87.09a4.18,4.18,0,0,1-2.66.83A4,4,0,0,1,9.21,86.66Z" fill="#D39742"/>
      <path d="M36.88,87.77V78.65h1.63v9.12Z" fill="#D39742"/>
      <path d="M59.52,87.77V78.65h1.42L65.46,85h.06V78.65h1.57v9.12H65.68l-4.53-6.4h0v6.4Z" fill="#D39742"/>
      <path d="M94,87.77h-5.9V78.65H94V80H89.74v2.46h4v1.3h-4v2.6H94Z" fill="#D39742"/>
      <path d="M124.24,87.77h-1.47V81.3h0l-2.63,6.39H119l-2.63-6.39h0v6.47h-1.48V78.65h1.89l2.79,6.88h0l2.8-6.88h1.88Z" fill="#D39742"/>
      <path d="M150.44,85.41h-3.35l-.78,2.36h-1.68l3.23-9.12h1.84l3.24,9.12h-1.72Zm-3-1.26h2.6l-1.27-3.89h0Z" fill="#D39742"/>
    </g>
  </g>
</svg>
